<?xml version="1.0" encoding="utf-8"?>
<!-- Generator: Adobe Illustrator 21.1.0, SVG Export Plug-In . SVG Version: 6.00 Build 0)  -->
<svg version="1.1" id="Layer_1" xmlns="http://www.w3.org/2000/svg" xmlns:xlink="http://www.w3.org/1999/xlink" x="0px" y="0px"
	 viewBox="0 0 127.4 128.3" style="enable-background:new 0 0 127.4 128.3;" xml:space="preserve">
<g>
	<path d="M127.4,64.5c0,16.6-6.7,33-18.4,44.8c-5.8,5.9-12.8,10.7-20.5,13.9c-7.7,3.3-16,5-24.3,5c-8.3,0-16.7-1.6-24.4-4.7
		c-7.7-3.2-14.8-7.9-20.8-13.8C13,103.8,8.2,96.8,5,89C1.7,81.3,0,72.9,0,64.5c0-8.4,1.6-16.8,4.7-24.6c3.2-7.8,7.9-15,13.9-21
		c6-6,13.1-10.8,20.9-14.1C47.3,1.6,55.8,0,64.2,0c8.4,0.1,16.9,1.8,24.6,5.1c7.7,3.3,14.7,8.2,20.5,14.2
		C121,31.4,127.5,48,127.4,64.5z M127.1,64.5c0-8.2-1.7-16.4-5-24c-3.3-7.5-8-14.4-13.9-20C96.4,9.2,80.3,2.8,64.2,3
		C48.1,3,32.1,9.6,20.7,21C15,26.7,10.4,33.5,7.2,40.9c-3.1,7.4-4.8,15.5-4.8,23.6c0,8.1,1.5,16.2,4.6,23.7
		c3.1,7.5,7.6,14.4,13.3,20.2c5.7,5.8,12.6,10.4,20.1,13.6c7.5,3.2,15.6,4.8,23.8,4.8c8.2,0.1,16.3-1.5,23.9-4.5
		c7.6-3.1,14.6-7.6,20.4-13.4c5.8-5.8,10.6-12.7,13.7-20.3C125.4,81,127,72.7,127.1,64.5z"/>
</g>
</svg>
