<?xml version="1.0" encoding="utf-8"?>
<!-- Generator: Adobe Illustrator 19.0.0, SVG Export Plug-In . SVG Version: 6.00 Build 0)  -->
<svg version="1.1" id="Layer_1" xmlns="http://www.w3.org/2000/svg" xmlns:xlink="http://www.w3.org/1999/xlink" x="0px" y="0px"
	 viewBox="0 0 800 800" style="enable-background:new 0 0 800 800;" xml:space="preserve">
<style type="text/css">
	.st0{fill:#282828;}
</style>
<g id="XMLID_2_">
	<path id="XMLID_8_" class="st0" d="M205.4,280.2c0,0,68.9-98.1,209.1-93c0,0,69.5,7.3,95.8,165.7
		C510.4,352.9,320.5,223.3,205.4,280.2z"/>
	<path id="XMLID_7_" class="st0" d="M438.4,187c0,0,124.7,8.1,189,125.3c0,0,27.5,60.5-106,160.1C521.4,472.4,547.8,253.1,438.4,187
		z"/>
	<path id="XMLID_6_" class="st0" d="M637.2,333.4c0,0,53.9,106-22.8,216.5c0,0-42.4,52.3-200.3-7.9C414,542,629.9,455.5,637.2,333.4
		z"/>
	<path id="XMLID_5_" class="st0" d="M606.8,567.9c0,0-71.5,96.4-211.5,88c0,0-69.3-9-91.4-167.9
		C303.9,488.1,490.3,622.1,606.8,567.9z"/>
	<path id="XMLID_4_" class="st0" d="M371.6,654.2c0,0-124.4-11-185.6-129.7c0,0-25.8-61.1,110.3-157.5
		C296.2,366.9,264.1,585.5,371.6,654.2z"/>
	<path id="XMLID_3_" class="st0" d="M171.6,509.4c0,0-51.1-107.3,28.5-215.9c0,0,43.8-51.3,200.1,12.6
		C400.2,306.2,182.1,387.6,171.6,509.4z"/>
</g>
</svg>
